<?xml version="1.0" encoding="iso-8859-1"?>
<!-- Generator: Adobe Illustrator 19.0.0, SVG Export Plug-In . SVG Version: 6.00 Build 0)  -->
<svg version="1.1" id="Capa_1" xmlns="http://www.w3.org/2000/svg" xmlns:xlink="http://www.w3.org/1999/xlink" x="0px" y="0px"
	 viewBox="0 0 512 512" style="enable-background:new 0 0 512 512;" xml:space="preserve">
<path style="fill:#FFAEB8;" d="M256,256H100.324c-42.773,0-78.207-33.963-79.139-76.726c-0.354-16.283,3.045-33.838,13.112-51.274
	s23.57-29.157,37.849-36.992c37.5-20.576,84.629-6.87,106.016,30.173L256,256z"/>
<g>
	<path style="fill:#FFCAD2;" d="M256,256l-77.838,134.819c-21.387,37.043-68.516,50.749-106.016,30.173
		C57.867,413.157,44.364,401.435,34.297,384c-10.067-17.435-13.467-34.991-13.112-51.274C22.116,289.963,57.55,256,100.323,256
		L256,256L256,256z"/>
	<path style="fill:#FFCAD2;" d="M256,256l-77.838-134.819c-21.387-37.043-9.691-84.711,26.877-106.899
		C218.964,5.833,235.867,0,256,0c20.133,0,37.036,5.833,50.96,14.281c36.568,22.188,48.264,69.856,26.877,106.899L256,256z"/>
</g>
<path style="fill:#FFAEB8;" d="M256,256l77.838,134.819c21.387,37.043,9.691,84.711-26.877,106.899
	C293.036,506.167,276.133,512,256,512c-20.133,0-37.036-5.833-50.96-14.281c-36.568-22.188-48.264-69.856-26.877-106.899L256,256z"
	/>
<path style="fill:#FFCAD2;" d="M256,256h155.676c42.773,0,78.207,33.963,79.139,76.726c0.354,16.283-3.045,33.838-13.112,51.274
	c-10.066,17.435-23.57,29.157-37.849,36.992c-37.5,20.576-84.629,6.87-106.016-30.173L256,256z"/>
<path style="fill:#FFAEB8;" d="M256,256l77.838-134.819c21.387-37.043,68.516-50.749,106.016-30.173
	c14.278,7.835,27.783,19.557,37.849,36.992s13.467,34.991,13.112,51.274C489.884,222.038,454.45,256,411.677,256H256z"/>
<path style="fill:#FF92A2;" d="M100.324,256H256l-77.837-134.819c-5.113-8.856-11.709-16.361-19.282-22.4
	c-51.15,31.713-85.758,87.669-87.646,151.701C80.263,254.033,90.079,256,100.324,256z"/>
<path style="fill:#FFAEB8;" d="M100.324,256c-10.245,0-20.061,1.967-29.09,5.518c1.887,64.032,36.496,119.988,87.646,151.701
	c7.573-6.039,14.169-13.544,19.282-22.4L256,256H100.324z"/>
<path style="fill:#FF92A2;" d="M256,440.856c31.676,0,61.513-8.013,87.6-22.112c-1.441-9.587-4.644-19.06-9.762-27.925L256,256
	l-77.837,134.819c-5.118,8.865-8.321,18.339-9.762,27.925C194.487,432.843,224.324,440.856,256,440.856z"/>
<path style="fill:#FFAEB8;" d="M411.676,256H256l77.838,134.82c5.113,8.856,11.709,16.361,19.282,22.4
	c51.15-31.713,85.759-87.669,87.647-151.701C431.737,257.967,421.922,256,411.676,256z"/>
<path style="fill:#FF92A2;" d="M411.676,256c10.245,0,20.061-1.967,29.091-5.519c-1.887-64.032-36.496-119.988-87.647-151.701
	c-7.573,6.039-14.169,13.544-19.282,22.4L256,256H411.676z"/>
<g>
	<path style="fill:#FFAEB8;" d="M256,71.144c-31.676,0-61.513,8.013-87.6,22.112c1.441,9.587,4.644,19.061,9.762,27.925L256,256
		l77.837-134.819c5.118-8.865,8.321-18.339,9.762-27.925C317.513,79.157,287.676,71.144,256,71.144z"/>
	<path style="fill:#FFAEB8;" d="M256,477.005c-8.738,0-15.823-7.084-15.823-15.822V50.817c0-8.738,7.084-15.822,15.823-15.822
		c8.739,0,15.823,7.084,15.823,15.822v410.366C271.823,469.921,264.738,477.005,256,477.005z"/>
</g>
<path style="fill:#FF92A2;" d="M433.679,374.416c-2.684,0-5.404-0.683-7.896-2.123L70.394,167.111
	c-7.568-4.369-10.161-14.045-5.792-21.613s14.044-10.163,21.614-5.791L441.606,344.89c7.568,4.369,10.16,14.046,5.791,21.613
	C444.466,371.578,439.148,374.416,433.679,374.416z"/>
<g>
	<path style="fill:#FFAEB8;" d="M433.679,374.416c-2.684,0-5.404-0.683-7.896-2.123L248.088,269.702l15.823-27.405l177.694,102.592
		c7.568,4.369,10.16,14.046,5.791,21.613C444.466,371.578,439.148,374.416,433.679,374.416z"/>
	<path style="fill:#FFAEB8;" d="M78.321,374.416c-5.468,0-10.786-2.837-13.717-7.914c-4.369-7.569-1.776-17.244,5.792-21.613
		l355.389-205.183c7.569-4.37,17.244-1.778,21.613,5.791c4.369,7.569,1.777,17.244-5.791,21.613L86.217,372.294
		C83.725,373.732,81.004,374.416,78.321,374.416z"/>
</g>
<path style="fill:#FF92A2;" d="M248.088,242.298l177.694-102.592c7.569-4.37,17.244-1.778,21.613,5.791
	c4.369,7.569,1.777,17.244-5.791,21.613L263.912,269.702L248.088,242.298z"/>
<path style="fill:#FF7B94;" d="M88.607,177.626l318.92,184.128c6.034-8.62,11.35-17.775,15.865-27.38L104.473,150.246
	C98.438,158.865,93.122,168.021,88.607,177.626z"/>
<g>
	<path style="fill:#FF92A2;" d="M104.473,361.754l318.92-184.128c-4.515-9.605-9.831-18.761-15.865-27.38L88.607,334.374
		C93.122,343.98,98.438,353.135,104.473,361.754z"/>
	<path style="fill:#FF92A2;" d="M256,477.005c-8.738,0-15.823-7.084-15.823-15.822V256h31.644v205.183
		C271.822,469.921,264.738,477.005,256,477.005z"/>
	<path style="fill:#FF92A2;" d="M248.088,269.702l159.439,92.052c6.034-8.62,11.35-17.775,15.865-27.38l-159.48-92.077
		L248.088,269.702z"/>
</g>
<path style="fill:#FF7B94;" d="M263.912,269.702l159.481-92.077c-4.515-9.605-9.831-18.761-15.865-27.38l-159.44,92.052
	L263.912,269.702z"/>
<path style="fill:#FF92A2;" d="M240.177,71.828v368.343c5.217,0.444,10.492,0.684,15.823,0.684c5.33,0,10.606-0.24,15.823-0.684
	V71.828c-5.218-0.444-10.492-0.684-15.823-0.684C250.67,71.144,245.395,71.383,240.177,71.828z"/>
<path style="fill:#FF7B94;" d="M240.177,440.172c5.217,0.444,10.492,0.684,15.823,0.684c5.33,0,10.605-0.24,15.822-0.684V256
	h-31.644V440.172z"/>
<circle style="fill:#FFEB99;" cx="256" cy="256" r="143.648"/>
<g>
	<path style="fill:#FFDE55;" d="M172.909,256c0-57.825,26.816-109.383,68.681-142.935C169.022,120.293,112.352,181.529,112.352,256
		s56.67,135.706,129.238,142.935C199.725,365.383,172.909,313.825,172.909,256z"/>
	<circle style="fill:#FFDE55;" cx="307.746" cy="312.217" r="7.726"/>
	<circle style="fill:#FFDE55;" cx="292.005" cy="348.428" r="7.726"/>
	<circle style="fill:#FFDE55;" cx="335.736" cy="341.114" r="7.726"/>
</g>
<path style="fill:#57565C;" d="M273.376,250.726h-34.752c-6.778,0.022-10.681,1.8-10.581,7.331
	c0.326,18.051,4.171,51.069,27.957,51.07c23.785,0,27.632-33.019,27.957-51.07C284.057,252.526,280.154,250.749,273.376,250.726z"/>
<path style="fill:#FF737D;" d="M256,279.647c-9.561,0-18.069,3.328-23.555,8.505c3.827,11.539,10.842,20.975,23.555,20.975
	c12.713,0,19.728-9.436,23.555-20.975C274.069,282.975,265.561,279.647,256,279.647z"/>
<g>
	<path style="fill:#57565C;" d="M339.091,263.59c-4.268,0-7.726-3.459-7.726-7.726v-12.827c0-4.267,3.458-7.726,7.726-7.726
		s7.726,3.459,7.726,7.726v12.827C346.818,260.131,343.358,263.59,339.091,263.59z"/>
	<path style="fill:#57565C;" d="M172.909,263.59c-4.268,0-7.726-3.459-7.726-7.726v-12.827c0-4.267,3.458-7.726,7.726-7.726
		c4.268,0,7.726,3.459,7.726,7.726v12.827C180.635,260.131,177.177,263.59,172.909,263.59z"/>
</g>
<g>
</g>
<g>
</g>
<g>
</g>
<g>
</g>
<g>
</g>
<g>
</g>
<g>
</g>
<g>
</g>
<g>
</g>
<g>
</g>
<g>
</g>
<g>
</g>
<g>
</g>
<g>
</g>
<g>
</g>
</svg>
