<svg id="color" height="512" viewBox="0 0 24 24" width="512" xmlns="http://www.w3.org/2000/svg"><g fill="#cfd8dc"><path d="m1.001 18.5-.108-.006c-.549-.059-.946-.552-.887-1.101l1.364-12.686c.124-1.151.911-2.139 2.005-2.516l3.299-1.136c.521-.182 1.091.097 1.271.62.18.522-.098 1.091-.62 1.271l-3.298 1.136c-.365.126-.627.455-.669.838l-1.364 12.687c-.055.513-.489.893-.993.893z"/><path d="m22.999 18.5c-.504 0-.938-.38-.993-.893l-1.364-12.687c-.042-.384-.304-.713-.668-.839l-3.299-1.136c-.522-.18-.8-.749-.62-1.271.179-.522.748-.802 1.271-.62l3.299 1.136c1.094.377 1.881 1.364 2.005 2.516l1.364 12.687c.059.549-.338 1.042-.887 1.101z"/><path d="m16 17h-8v-3h8z"/></g><path d="m20.25 23h-1.5c-3.17 0-5.75-2.58-5.75-5.75v-.5c0-1.517 1.233-2.75 2.75-2.75h4.5c2.068 0 3.75 1.682 3.75 3.75v1.5c0 2.068-1.682 3.75-3.75 3.75z" fill="#ffc107"/><path d="m5.25 23h-1.5c-2.068 0-3.75-1.682-3.75-3.75v-1.5c0-2.068 1.682-3.75 3.75-3.75h4.5c1.517 0 2.75 1.233 2.75 2.75v.5c0 3.17-2.58 5.75-5.75 5.75z" fill="#ffc107"/><path d="m7.001.999c-.108 0-.219.018-.327.056l-3.299 1.136c-1.094.377-1.881 1.364-2.005 2.516l-1.364 12.686c-.007.065-.008.13-.002.192.065-1.503 1.02-2.78 2.349-3.316l1.005-9.349c.042-.383.304-.712.669-.838l3.299-1.136c.522-.18.8-.749.62-1.271-.143-.415-.531-.676-.945-.676z" fill="#b4bcc0"/><path d="m12 14h-3.75c1.517 0 2.75 1.233 2.75 2.75v.25h1z" fill="#b4bcc0"/><path d="m8.25 14h-4.5c-.493 0-.965.096-1.397.27-1.33.536-2.284 1.812-2.349 3.316-.003.054-.004.109-.004.164v1.5c0 2.068 1.682 3.75 3.75 3.75h1.5c3.17 0 5.75-2.58 5.75-5.75v-.25-.25c0-1.517-1.233-2.75-2.75-2.75z" fill="#dea806"/></svg>