<svg id="Capa_1" enable-background="new 0 0 512 512" height="512" viewBox="0 0 512 512" width="512" xmlns="http://www.w3.org/2000/svg" xmlns:xlink="http://www.w3.org/1999/xlink"><linearGradient id="SVGID_1_" gradientUnits="userSpaceOnUse" x1="256" x2="256" y1="4.214" y2="638.795"><stop offset=".0023" stop-color="#ffc599"/><stop offset=".992" stop-color="#ffe8dc" stop-opacity="0"/></linearGradient><linearGradient id="SVGID_2_" gradientUnits="userSpaceOnUse" x1="231.394" x2="231.394" y1="354.783" y2="131.039"><stop offset="0" stop-color="#ff4d4d" stop-opacity=".4"/><stop offset="1" stop-color="#ff4d4d" stop-opacity="0"/></linearGradient><g><path d="m512 200.126c0-77.209-114.615-139.799-256-139.799s-256 62.59-256 139.799c0 12.48 2.998 24.577 8.62 36.089 10.007 20.491 12.502 43.828 7.537 66.086-2.036 9.127-3.179 18.59-3.333 28.294-1.235 77.812 61.961 142.061 139.782 142.061 58.443-.001 108.503-35.865 129.385-86.785 11.468-27.964 35.565-48.919 65.155-55.077 96.38-20.058 164.854-70.993 164.854-130.668z" fill="url(#SVGID_1_)"/><g><g><g><g><path d="m328.206 102.66v154.252c0 3.276 2.656 5.933 5.933 5.933h27.187c3.276 0 5.933-2.656 5.933-5.933v-101.544c0-5.518 4.473-9.991 9.991-9.991 5.518 0 9.991 4.473 9.991 9.991v101.543c0 3.276 2.656 5.933 5.933 5.933h27.187c3.276 0 5.933-2.656 5.933-5.933v-154.251c0-3.276-2.656-5.933-5.933-5.933h-86.221c-3.278 0-5.934 2.656-5.934 5.933z" fill="#9494ff"/><g fill="#d9d9ff"><path d="m426.292 113.539v-10.879c0-3.277-2.656-5.933-5.933-5.933h-86.221c-3.277 0-5.933 2.656-5.933 5.933v10.879z"/><path d="m328.206 245.046v11.865c0 3.276 2.656 5.933 5.933 5.933h27.187c3.276 0 5.933-2.656 5.933-5.933v-11.865z"/><path d="m387.24 245.046v11.865c0 3.276 2.656 5.933 5.933 5.933h27.187c3.276 0 5.933-2.656 5.933-5.933v-11.865z"/></g><path d="m402.784 113.539c.259 10.092 5.721 19.335 14.498 24.395l9.006 5.197v-29.592z" fill="#6c6cff"/><path d="m351.71 113.539c-.259 10.092-5.721 19.335-14.498 24.395l-9.006 5.197v-29.592z" fill="#6c6cff"/><path d="m358.532 115.432h-5.636c-.655 0-1.187-.531-1.187-1.187v-17.518h8.009v17.518c.001.656-.53 1.187-1.186 1.187z" fill="#b3b3ff"/><path d="m401.598 115.432h-5.636c-.655 0-1.187-.531-1.187-1.187v-17.518h8.009v17.518c0 .656-.531 1.187-1.186 1.187z" fill="#b3b3ff"/></g><g><path d="m61.17 310.767v94.306c0 3.276 2.656 5.933 5.933 5.933h27.187c3.277 0 5.933-2.656 5.933-5.933v-41.598c0-5.518 4.473-9.991 9.991-9.991 5.518 0 9.991 4.473 9.991 9.991v41.598c0 3.276 2.656 5.933 5.933 5.933h27.187c3.277 0 5.933-2.656 5.933-5.933v-94.306c0-3.276-2.656-5.933-5.933-5.933h-86.222c-3.276 0-5.933 2.656-5.933 5.933z" fill="#ff9494"/><g fill="#ffd9d9"><path d="m159.257 321.646v-10.879c0-3.277-2.656-5.933-5.933-5.933h-86.221c-3.277 0-5.933 2.656-5.933 5.933v10.879z"/><path d="m61.17 393.208v11.865c0 3.276 2.656 5.933 5.933 5.933h27.187c3.277 0 5.933-2.656 5.933-5.933v-11.865z"/><path d="m120.204 393.208v11.865c0 3.276 2.656 5.933 5.933 5.933h27.187c3.277 0 5.933-2.656 5.933-5.933v-11.865z"/></g><path d="m135.749 321.646c.259 10.092 5.721 19.335 14.498 24.395l9.006 5.197v-29.592z" fill="#ff4d4d"/><path d="m84.675 321.646c-.259 10.092-5.721 19.335-14.498 24.395l-9.006 5.197v-29.592z" fill="#ff4d4d"/><path d="m91.497 323.539h-5.636c-.655 0-1.187-.531-1.187-1.186v-17.519h8.009v17.519c.001.655-.531 1.186-1.186 1.186z" fill="#ff9494"/><path d="m134.562 323.539h-5.636c-.655 0-1.187-.531-1.187-1.186v-17.519h8.009v17.519c.001.655-.53 1.186-1.186 1.186z" fill="#ff9494"/></g><g><g><path d="m280.528 86.433-28.245 28.246c-1.793 1.793-4.7 1.793-6.493 0l-16.211-16.211v98.241c0 2.536-2.056 4.591-4.591 4.591h-107.613c-2.536 0-4.591-2.056-4.591-4.591v-98.241l-16.211 16.211c-1.793 1.793-4.7 1.793-6.493 0l-28.246-28.246c-1.793-1.793-1.793-4.7 0-6.493l49.605-49.605c.861-.861 2.029-1.345 3.247-1.345h23.694c1.815 0 3.491 1.057 4.195 2.73 4.693 11.162 15.735 19.003 28.607 19.003s23.914-7.841 28.607-19.003c.704-1.673 2.38-2.73 4.195-2.73h23.694c1.218 0 2.385.484 3.247 1.345l49.605 49.605c1.791 1.793 1.791 4.7-.002 6.493z" fill="#ff4d4d"/><g><path d="m313.905 302.466h23.875v69.788h-23.875z" fill="#4d4dff" transform="matrix(.707 -.707 .707 .707 -143.113 329.216)"/><path d="m309.609 304.245 18.596 18.596c-2.474 3.071-5.142 6.039-7.993 8.889s-5.818 5.519-8.889 7.993l-18.596-18.596z" fill="#2c27ff"/><circle cx="231.394" cy="242.911" fill="#ff9d33" r="111.872"/><circle cx="231.394" cy="242.911" fill="#d9d9ff" r="86.124"/><path d="m316.764 231.562-96.722 96.712c-9.481-1.239-18.783-4.066-27.495-8.472l115.734-115.734c4.417 8.712 7.245 18.013 8.483 27.494z" fill="#ebebff"/><path d="m303.716 196.125-119.101 119.101c-5.005-3.227-9.741-7.044-14.117-11.42-5.435-5.435-10.001-11.42-13.667-17.774l117.682-117.682c6.354 3.667 12.349 8.232 17.784 13.667 4.376 4.377 8.182 9.112 11.419 14.108z" fill="#ebebff"/><path d="m260.696 161.916v106.403c0 3.167-2.568 5.715-5.725 5.715h-103.905c-11.919-30.832-5.455-67.139 19.422-92.016 24.388-24.388 59.785-31.092 90.208-20.102z" fill="#ff6c6c"/><path d="m468.802 458.256-22.064 22.064c-3.586 3.586-9.4 3.586-12.986 0l-100.228-100.228c-3.586-3.586-3.586-9.4 0-12.986l22.064-22.064c3.586-3.586 9.4-3.586 12.986 0l100.228 100.228c3.586 3.586 3.586 9.4 0 12.986z" fill="#ff9d33"/><path d="m349.889 374.733h49.568v22.917h-49.568z" fill="#ffc599" transform="matrix(.707 -.707 .707 .707 -163.339 378.048)"/><g><path d="m295.828 178.477c-17.211-17.211-40.094-26.689-64.434-26.689s-47.223 9.479-64.434 26.689c-17.211 17.211-26.689 40.094-26.689 64.434s9.478 47.223 26.689 64.434 40.094 26.689 64.434 26.689 47.223-9.479 64.434-26.689c17.211-17.211 26.69-40.094 26.69-64.434s-9.479-47.223-26.69-64.434zm-7.072 121.797c-15.322 15.322-35.694 23.761-57.363 23.761s-42.041-8.438-57.363-23.761c-15.322-15.322-23.761-35.694-23.761-57.363s8.438-42.04 23.761-57.363c15.322-15.322 35.694-23.761 57.363-23.761s42.04 8.438 57.363 23.761c15.323 15.322 23.761 35.694 23.761 57.363s-8.438 42.041-23.761 57.363z" fill="#ff7300"/></g></g></g><path d="m231.356 253.003h-29.973c-2.759 0-4.995-2.236-4.995-4.995v-11.323c0-2.759 2.237-4.995 4.995-4.995h29.973c2.759 0 4.995 2.236 4.995 4.995v11.323c0 2.758-2.236 4.995-4.995 4.995z" fill="#4d4dff"/><path d="m260.696 251.654v16.665c0 3.167-2.568 5.715-5.725 5.715h-16.655z" fill="#ff9494"/><path d="m260.696 182.167v56.978l-34.888 34.889h-56.978z" fill="#ff9494"/><path d="m236.348 236.688v11.32c0 2.757-2.238 4.995-4.996 4.995h-29.972c-2.758 0-4.995-2.238-4.995-4.995v-1.529l14.787-14.786h20.181c2.757-.001 4.995 2.237 4.995 4.995z" fill="#6c6cff"/></g></g><path d="m426.834 339.03c-1.28 0-2.559-.488-3.536-1.464-1.953-1.953-1.953-5.119 0-7.071l9.991-9.991c1.952-1.952 5.118-1.952 7.071 0 1.953 1.953 1.953 5.119 0 7.071l-9.991 9.991c-.975.976-2.255 1.464-3.535 1.464z" fill="#ff9d33"/><path d="m216.37 420.777c-1.28 0-2.559-.488-3.536-1.464-1.953-1.953-1.953-5.119 0-7.071l9.991-9.991c1.953-1.952 5.118-1.952 7.071 0 1.953 1.953 1.953 5.119 0 7.071l-9.991 9.991c-.976.976-2.256 1.464-3.535 1.464z" fill="#ff9d33"/><path d="m75.701 166.551c-1.28 0-2.559-.488-3.536-1.464-1.953-1.953-1.953-5.119 0-7.071l9.991-9.991c1.954-1.952 5.119-1.951 7.071 0 1.953 1.953 1.953 5.119 0 7.071l-9.991 9.991c-.976.975-2.256 1.464-3.535 1.464z" fill="#6c6cff"/><g><path d="m60.49 204.967c-1.28 0-2.559-.488-3.536-1.464l-6.455-6.456-6.456 6.456c-1.953 1.952-5.118 1.952-7.071 0-1.953-1.953-1.953-5.119 0-7.071l9.991-9.991c.938-.938 2.209-1.464 3.536-1.464 1.326 0 2.598.527 3.536 1.464l9.991 9.991c1.953 1.953 1.953 5.119 0 7.071-.977.975-2.257 1.464-3.536 1.464z" fill="#ff6c6c"/></g><g><path d="m349.949 67.922c-1.28 0-2.559-.488-3.536-1.464l-6.455-6.456-6.456 6.456c-1.953 1.953-5.118 1.952-7.071 0-1.953-1.953-1.953-5.119 0-7.071l9.991-9.991c1.954-1.952 5.119-1.951 7.071 0l9.991 9.991c1.953 1.953 1.953 5.119 0 7.071-.976.976-2.256 1.464-3.535 1.464z" fill="#ff6c6c"/></g></g></g><circle cx="231.394" cy="242.911" fill="url(#SVGID_2_)" r="111.872"/></g></svg>